<svg xmlns="http://www.w3.org/2000/svg" width="1643" height="408"><path fill="#bc042b" fill-rule="evenodd" d="M1225.2 92.1c77.8 0 141.1 69.3 141.4 154.8 0 10.4-1 20.9-3 31.1h-204.9s2.6 59 82.1 59 100-35.4 100-35.4v62.6c-64.6 81.2-261.2 30.2-256.9-117.3 2.6-85.5 63.2-154.8 141.3-154.8m71.5 133.3c-8.2-33.2-36.4-57.4-69.5-57.4s-61.2 24.5-69.5 57.4zM208.1 135.9V98.4h78.5V399h-78.1v-37.4c-21.6 24.1-50 39.1-81.5 39.1-67.2 0-121.8-68.3-121.8-152.1 0-83.9 54.3-151.8 121.5-151.8q31.4 0 81.4 39.1m4 114.3c0-46-27.8-83.2-62.2-83.2s-62.3 37.2-62.3 83.2 27.9 83.2 62.3 83.2 62.2-37.2 62.2-83.2m518.2 114c2.3 12.6 10.2 23.5 22.5 33.8h-76.5c-10.9-8.9-19.5-19.5-22.5-34.5V211.1c-1-16.6-7-46.7-40.1-45.1-45.7 2.3-43.4 50.1-43.4 50.1v148.1c2.7 12.6 10.3 23.9 22.6 33.8h-76.5c-10.9-8.9-19.6-19.5-22.5-34.5V204.8c-2-14.6-11-39.4-41.1-39.4-27.5 0-40.4 23.8-45.4 36.1V398H331V96.8h76.4v31.8c7.3-9.6 31.8-36.1 77.9-36.1 32-.7 61.7 16.6 77.1 44.7l89.4-41.1c73.5 0 78.5 70.6 78.5 70.6zM942.1 96.8c67.3 0 121.6 67.6 121.6 151.8 0 84.1-54.3 152.1-121.6 152.1-31.4 0-59.9-15-81.4-39.1V399h-78.1V5.6h78.1v130.3c21.5-24.2 50-39.1 81.4-39.1m39.1 153.4c0-46-27.8-83.2-62.2-83.2-34.5 0-62.3 37.2-62.3 83.2s27.8 83.2 62.3 83.2c34.4 0 62.2-37.2 62.2-83.2m656.2-153.1-105.9 301.3h-86.1L1345.1 97.1h90.7l56.6 212.1L1549 97.1z"/></svg>