<svg version="1.2" xmlns="http://www.w3.org/2000/svg" viewBox="0 0 714 326" width="714" height="326">
	<title>logo-header-v2-svg</title>
	<style>
		.s0 { fill: #1c252e } 
	</style>
	<g id="Layer">
		<g id="Layer">
			<path id="Layer" class="s0" d="m150.8 226.9c0 6.1 4.2 9.2 10.5 9.2 7.4 0 13.3-5.6 13.3-13.5v-6.3c-1.4-0.2-3.3-0.2-5.4-0.2-12.4 0-18.4 3.9-18.4 10.8z"/>
			<path id="Layer" fill-rule="evenodd" class="s0" d="m306.6 164.2c-0.1 43.8-4.4 85.2-10.5 111.1-3.1 14.8-11.8 24.7-28.4 28.4-27.2 6.8-67.3 10.5-111.2 10.5-43.8 0-83.9-3.7-111.1-10.5-16.6-3.7-25.3-13.6-28.4-28.4-6.1-25.9-10.5-67.3-10.5-111.1 0-43.8 4.4-85.2 10.5-111.1 3.1-14.8 11.8-24.7 28.4-28.4 27.2-6.8 67.3-10.5 111.1-10.5 43.9 0 84 3.7 111.2 10.5 16.6 3.7 25.3 13.6 28.4 28.4 6.1 25.9 10.4 67.3 10.4 111.1zm-83.1 0.2h36.5v-19.1l-36.5 6.7zm-161.8 10.2h-21.9v75.2h21.9zm2.2-21.4c0-7.2-5.3-12.6-13.1-12.6-7.7 0-13 5.4-13 12.6 0 7.2 5.3 12.6 13 12.6 7.8 0 13.1-5.4 13.1-12.6zm58.3 21.3h-19.6v-22.8l-22 4.1v18.7h-11.1v16.7h11.2v32.5c0 18.2 9.6 27.4 27.1 27.4 6 0 10.6-0.7 13.1-1.4v-16.8c-1.5 0.4-4.8 0.9-7.8 0.9-7.1 0-10.5-3.5-10.5-11.5v-31.1h19.6zm73.6 31c0-21.3-10.9-32.9-33.8-32.9-10.9 0-20.1 1.7-29 5v17.7c8.7-3.3 17.5-5.3 25.5-5.3 10.1 0 15.2 4.1 16.1 12.7-1.7-0.1-3.9-0.3-6.3-0.3-24.4 0-39.5 9.5-39.5 26 0 14.2 11.2 23.1 26.1 23.1 9.1 0 15.5-3.6 20-9.8l0.2 7.9h20.7zm77.7-30.9h-21.9v44.3c0 9.1-4.6 14.9-11.9 14.9-7.3 0-11.3-4.9-11.3-14.1v-45.1h-22v48.7c0 17.2 9.9 28.3 25.4 28.3 9.2 0 15.3-3.3 20.4-10.1l0.3 8.2h21z"/>
		</g>
		<g id="Layer">
			<path id="Layer" fill-rule="evenodd" class="s0" d="m406.6 249.5q5.9-22.2 13.7-43.5 7.7-21.3 17.2-41.8h12.1q19.4 41.6 31 85.3h-11.9q-3-11.8-6.1-22.4h-38.6q-3.1 10.6-6.1 22.4zm20.4-31.8h32.8q-3.8-11.9-7.8-22.7-4.1-10.7-8.6-20.4-8.9 19.2-16.4 43.1z"/>
			<path id="Layer" class="s0" d="m508.4 251.1q-5.5 0-10.1-1.1-4.6-1.1-9.5-3.7v-9.9q9.3 5.8 19.2 5.8 6.3 0 10-2.8 3.8-2.8 3.8-7.5 0-4-3.3-6.5-3.2-2.4-11.9-4.8-9.1-2.7-13.3-7.2-4.3-4.6-4.3-11.7 0-5.4 3.1-9.7 3.1-4.3 8.4-6.7 5.3-2.5 12-2.5 4.2 0 8.8 1.1 4.6 1.2 7.5 2.9v9.6q-7-4.6-15.9-4.6-6 0-9.6 2.5-3.5 2.5-3.5 7 0 3.9 3 6.3 3 2.4 10.7 4.5 10.4 2.9 14.8 7.5 4.5 4.7 4.4 12.4 0.1 8.7-6.7 13.9-6.6 5.2-17.6 5.2z"/>
			<path id="Layer" class="s0" d="m561.8 251.1q-5.4 0-10-1.1-4.6-1.1-9.6-3.7v-9.9q9.4 5.8 19.2 5.8 6.3 0 10.1-2.8 3.7-2.8 3.7-7.5 0-4-3.2-6.5-3.2-2.4-12-4.8-9.1-2.7-13.3-7.2-4.2-4.6-4.2-11.7 0-5.4 3.1-9.7 3.1-4.3 8.4-6.7 5.3-2.5 12-2.5 4.1 0 8.7 1.1 4.7 1.2 7.6 2.9v9.6q-7.1-4.6-16-4.6-6 0-9.6 2.5-3.5 2.5-3.5 7 0 3.9 3 6.3 3.1 2.4 10.8 4.5 10.3 2.9 14.8 7.5 4.4 4.7 4.4 12.4 0 8.7-6.7 13.9-6.7 5.2-17.7 5.2z"/>
			<path id="Layer" fill-rule="evenodd" class="s0" d="m626.9 251.1q-14.4 0-22.7-9.2-8.3-9.2-8.3-25.1 0-10.3 3.6-17.9 3.5-7.6 10-11.9 6.5-4.2 15.1-4.2 12.1 0 19.1 8.4 6.9 8.5 6.9 23.3v5.8h-43.9q0.9 10.2 6.4 15.9 5.6 5.6 15 5.6 5.2 0 10.2-1.7 4.9-1.6 8.4-4.4v9.6q-3.4 2.7-8.8 4.2-5.5 1.6-11 1.6zm-20.1-39.3h33.5q-0.4-9.6-4.6-14.8-4.3-5.2-11.6-5.2-7.6 0-12.1 5.1-4.5 5.2-5.2 14.9z"/>
			<path id="Layer" class="s0" d="m684.7 250.8q-8.9 0-13.7-5.1-4.8-5.1-4.8-15.2v-37.4h-10.5v-8.7h10.5v-16.5h11.1v16.5h15.8v8.7h-15.8v37.2q0 5 1.9 8.1 2 3.1 6.3 3.1 3.1 0 5.6-0.7 2.4-0.8 4-1.9v9.1q-1.7 1.1-4.4 1.9-2.7 0.8-6 0.8z"/>
		</g>
	</g>
</svg>