<svg width="452" height="173" viewBox="0 0 452 173" fill="none" xmlns="http://www.w3.org/2000/svg">
<path d="M402.149 147.46V138.035H375.704V87.8682H364.761V147.46H402.149Z" fill="#78797C"/>
<path d="M330.413 122.833H314.911L322.51 102.766V102.462L330.413 122.833ZM351.995 147.46L328.285 87.8682H317.95L293.329 147.46H304.88L310.959 132.258H333.757L339.532 147.46H351.995Z" fill="#78797C"/>
<path d="M125.235 41.9578C139.825 54.4235 154.112 64.761 169.31 64.761C197.275 64.761 210.346 47.1265 210.346 47.1265L115.812 173L0 17.9385C0 17.9385 18.846 0 50.4586 0C79.9435 0 103.349 23.4112 125.235 41.9578Z" fill="#008F83"/>
<path d="M234.055 16.1142C234.055 16.1142 223.112 7.297 208.826 7.297C179.949 7.297 162.015 36.181 125.235 41.9578C139.825 54.4235 154.112 64.761 169.31 64.761C197.275 64.761 210.346 47.1265 210.346 47.1265L234.055 16.1142Z" fill="#E9AB13"/>
<path d="M291.505 87.8682H279.954L265.06 128.306C264.148 130.738 263.54 132.258 263.54 132.258H263.236C263.236 132.258 251.381 102.462 245.302 87.8682H233.143L254.421 140.163C255.637 143.204 259.588 148.373 267.188 148.373L291.505 87.8682Z" fill="#78797C"/>
<path d="M402.149 147.46V138.035H375.704V87.8682H364.761V147.46H402.149Z" fill="#78797C"/>
<path d="M450.48 147.46V138.035H425.555V121.009H446.833V111.887H425.555V97.2935H440.145C451.392 97.2935 452 87.8682 452 87.8682H414.612V147.46H450.48Z" fill="#78797C"/>
<path d="M330.413 122.833H314.911L322.51 102.766V102.462L330.413 122.833ZM351.995 147.46L328.285 87.8682H317.95L293.329 147.46H304.88L310.959 132.258H333.757L339.532 147.46H351.995Z" fill="#78797C"/>
</svg>
