<svg xmlns="http://www.w3.org/2000/svg" viewBox="0 0 25 25" shape-rendering="crispEdges">
  <rect width="25" height="25" fill="#fff"/>

  <!-- Finder pattern · top-left -->
  <path d="M0 0h7v7H0z" fill="#000"/>
  <path d="M1 1h5v5H1z" fill="#fff"/>
  <path d="M2 2h3v3H2z" fill="#000"/>

  <!-- Finder pattern · top-right -->
  <path d="M18 0h7v7h-7z" fill="#000"/>
  <path d="M19 1h5v5h-5z" fill="#fff"/>
  <path d="M20 2h3v3h-3z" fill="#000"/>

  <!-- Finder pattern · bottom-left -->
  <path d="M0 18h7v7H0z" fill="#000"/>
  <path d="M1 19h5v5H1z" fill="#fff"/>
  <path d="M2 20h3v3H2z" fill="#000"/>

  <!-- Alignment pattern · center-bottom-right (smaller) -->
  <path d="M16 16h5v5h-5z" fill="#000"/>
  <path d="M17 17h3v3h-3z" fill="#fff"/>
  <path d="M18 18h1v1h-1z" fill="#000"/>

  <!-- Timing patterns (rows 6 and cols 6) -->
  <path d="M8 6h1v1H8zM10 6h1v1h-1zM12 6h1v1h-1zM14 6h1v1h-1zM16 6h1v1h-1z" fill="#000"/>
  <path d="M6 8h1v1H6zM6 10h1v1H6zM6 12h1v1H6zM6 14h1v1H6zM6 16h1v1H6z" fill="#000"/>

  <!-- Data modules · estilizados -->
  <path d="M9 0h1v1H9zM11 0h1v1h-1zM14 0h1v1h-1zM16 0h1v1h-1zM8 1h1v1H8zM12 1h1v1h-1zM15 1h1v1h-1zM17 1h1v1h-1zM10 2h1v1h-1zM13 2h1v1h-1zM16 2h1v1h-1z" fill="#000"/>
  <path d="M8 3h1v1H8zM11 3h1v1h-1zM14 3h1v1h-1zM17 3h1v1h-1zM9 4h1v1H9zM12 4h1v1h-1zM15 4h1v1h-1zM16 4h1v1h-1zM10 5h1v1h-1zM13 5h1v1h-1zM17 5h1v1h-1z" fill="#000"/>

  <path d="M0 8h1v1H0zM2 8h1v1H2zM4 8h1v1H4zM1 9h1v1H1zM3 9h1v1H3zM0 10h1v1H0zM2 10h1v1H2zM4 10h1v1H4zM1 11h1v1H1zM3 11h1v1H3zM0 12h1v1H0zM2 12h1v1H2zM4 12h1v1H4zM1 13h1v1H1zM3 13h1v1H3zM0 14h1v1H0zM2 14h1v1H2zM4 14h1v1H4zM1 15h1v1H1zM3 15h1v1H3zM0 16h1v1H0zM2 16h1v1H2zM4 16h1v1H4z" fill="#000"/>

  <path d="M8 8h2v2H8zM11 8h1v1h-1zM13 8h2v2h-2zM16 8h1v1h-1zM18 8h1v1h-1zM20 8h1v1h-1zM22 8h1v1h-1zM24 8h1v1h-1z" fill="#000"/>
  <path d="M9 10h1v1H9zM12 10h1v1h-1zM15 10h2v2h-2zM18 10h1v1h-1zM21 10h1v1h-1zM23 10h1v1h-1z" fill="#000"/>
  <path d="M8 11h1v1H8zM10 11h2v2h-2zM13 11h1v1h-1zM18 11h2v2h-2zM21 11h2v2h-2zM24 11h1v1h-1z" fill="#000"/>
  <path d="M9 13h2v2H9zM12 13h1v1h-1zM14 13h1v1h-1zM17 13h1v1h-1zM19 13h2v2h-2zM22 13h1v1h-1zM24 13h1v1h-1z" fill="#000"/>
  <path d="M8 14h1v1H8zM11 14h1v1h-1zM13 14h1v1h-1zM15 14h2v2h-2zM18 14h1v1h-1zM21 14h1v1h-1zM23 14h1v1h-1z" fill="#000"/>
  <path d="M8 15h1v1H8zM10 15h1v1h-1zM12 15h1v1h-1zM13 16h2v2h-2zM18 16h1v1h-1zM22 16h1v1h-1zM24 16h1v1h-1z" fill="#000"/>

  <path d="M8 18h1v1H8zM10 18h1v1h-1zM12 18h1v1h-1zM14 18h1v1h-1zM23 18h1v1h-1zM9 19h1v1H9zM11 19h1v1h-1zM13 19h1v1h-1zM15 19h1v1h-1zM22 19h1v1h-1zM24 19h1v1h-1z" fill="#000"/>
  <path d="M8 20h1v1H8zM10 20h2v2h-2zM13 20h1v1h-1zM15 20h1v1h-1zM23 20h1v1h-1zM9 22h1v1H9zM12 22h1v1h-1zM14 22h2v2h-2zM22 22h1v1h-1zM24 22h1v1h-1z" fill="#000"/>
  <path d="M8 23h1v1H8zM11 23h1v1h-1zM13 23h1v1h-1zM15 23h1v1h-1zM17 23h1v1h-1zM19 23h1v1h-1zM21 23h1v1h-1zM23 23h1v1h-1zM10 24h1v1h-1zM12 24h1v1h-1zM14 24h1v1h-1zM16 24h2v2h-2zM21 24h1v1h-1zM23 24h1v1h-1z" fill="#000"/>
</svg>
