<?xml version="1.0" encoding="UTF-8"?>
<svg id="Layer_2" data-name="Layer 2" xmlns="http://www.w3.org/2000/svg" viewBox="0 0 131.38 130.79">
  <defs>
    <style>
      .cls-1 {
        fill: #fff;
      }
    </style>
  </defs>
  <g id="Layer_1-2" data-name="Layer 1">
    <path class="cls-1" d="M3.96,106.05v3.96H0v-18.69h6.8c2.04,0,3.77.72,5.21,2.15,1.43,1.43,2.15,3.17,2.15,5.21s-.72,3.77-2.15,5.21c-1.44,1.43-3.17,2.15-5.21,2.15h-2.83ZM3.96,95.29v6.8h2.83c.94,0,1.74-.33,2.4-1,.66-.67,1-1.46,1-2.4s-.33-1.74-1-2.4c-.66-.67-1.46-1-2.4-1h-2.83Z"/>
    <path class="cls-1" d="M23.22,106.05v3.96h-3.96v-18.69h6.8c2.04,0,3.78.72,5.21,2.15s2.15,3.17,2.15,5.21-.72,3.77-2.15,5.21c-.29.29-.6.55-.93.79l3.08,5.32h-4.58l-2.29-3.99c-.17.01-.33.02-.5.02h-2.83ZM23.22,95.29v6.8h2.83c.94,0,1.74-.33,2.4-1,.66-.67,1-1.46,1-2.4s-.33-1.74-1-2.4c-.66-.67-1.46-1-2.4-1h-2.83Z"/>
    <polygon class="cls-1" points="51.53 91.33 51.53 95.29 43.04 95.29 43.04 98.69 49.84 98.69 49.84 102.65 43.04 102.65 43.04 106.05 51.53 106.05 51.53 110.02 39.08 110.02 39.08 91.33 51.53 91.33"/>
    <polygon class="cls-1" points="59.71 91.33 65.99 99.73 72.26 91.33 75.32 91.33 75.32 110.02 71.36 110.02 71.36 99.17 66.89 105.15 65.08 105.15 60.6 99.12 60.6 110.02 56.63 110.02 56.63 91.33 59.71 91.33"/>
    <rect class="cls-1" x="81.55" y="91.33" width="3.96" height="18.69"/>
    <path class="cls-1" d="M91.18,102.65v-11.33h3.96v11.33c0,1.09.39,2.02,1.15,2.8.77.78,1.71,1.17,2.81,1.17s2.02-.39,2.8-1.17c.78-.78,1.17-1.71,1.17-2.8v-11.33h3.96v11.33c0,2.19-.77,4.06-2.32,5.61-1.55,1.55-3.42,2.32-5.61,2.32s-4.06-.77-5.61-2.32c-1.55-1.55-2.32-3.42-2.32-5.61"/>
    <polygon class="cls-1" points="115.78 91.33 122.05 99.73 128.33 91.33 131.38 91.33 131.38 110.02 127.42 110.02 127.42 99.17 122.96 105.15 121.14 105.15 116.66 99.12 116.66 110.02 112.7 110.02 112.7 91.33 115.78 91.33"/>
    <path class="cls-1" d="M42.32,128.83c-1.34,1.3-2.94,1.96-4.81,1.96s-3.54-.67-4.89-2.02-2.02-2.98-2.02-4.89.67-3.53,2.02-4.87c1.35-1.35,2.97-2.02,4.89-2.02s3.53.67,4.87,2.02l-1.4,1.39c-.96-.96-2.11-1.43-3.47-1.43s-2.53.48-3.49,1.44c-.96.96-1.44,2.12-1.44,3.48s.48,2.53,1.44,3.49c.96.96,2.13,1.44,3.49,1.44,1.06,0,2.01-.3,2.84-.9v-3.04h-3.55v-1.97h5.52v5.93Z"/>
    <path class="cls-1" d="M52.13,127.17c-.26.04-.54.06-.82.06h-2.96v3.15h-1.97v-13.01h4.94c1.36,0,2.52.48,3.48,1.44.96.96,1.44,2.12,1.44,3.48s-.48,2.53-1.44,3.49c-.26.26-.54.49-.84.68l1.97,3.93h-2.19l-1.61-3.22ZM48.34,125.27h2.96c.81,0,1.5-.29,2.08-.87.58-.58.87-1.28.87-2.1s-.29-1.5-.87-2.08c-.58-.58-1.27-.87-2.08-.87h-2.96v5.91Z"/>
    <path class="cls-1" d="M71.16,119c1.35,1.35,2.02,2.97,2.02,4.87s-.67,3.54-2.02,4.89c-1.35,1.35-2.97,2.02-4.87,2.02s-3.54-.67-4.89-2.02c-1.34-1.35-2.02-2.98-2.02-4.89s.67-3.53,2.02-4.87c1.35-1.35,2.98-2.02,4.89-2.02s3.53.67,4.87,2.02M66.29,118.96c-1.37,0-2.53.48-3.49,1.44-.96.96-1.44,2.12-1.44,3.48s.48,2.53,1.44,3.49c.96.96,2.13,1.44,3.49,1.44s2.52-.48,3.48-1.44c.96-.96,1.44-2.13,1.44-3.49s-.48-2.52-1.44-3.48c-.96-.96-2.12-1.44-3.48-1.44"/>
    <path class="cls-1" d="M76.34,125.45v-8.07h1.97v8.07c0,.94.33,1.73.98,2.38.65.65,1.45.98,2.38.98s1.71-.32,2.37-.98c.65-.65.98-1.45.98-2.38v-8.07h1.97v8.07c0,1.47-.52,2.73-1.56,3.77-1.04,1.04-2.29,1.56-3.75,1.56s-2.73-.52-3.77-1.56c-1.04-1.04-1.56-2.3-1.56-3.77"/>
    <path class="cls-1" d="M95.86,117.38c1.36,0,2.52.48,3.48,1.44.96.96,1.44,2.12,1.44,3.48s-.48,2.53-1.44,3.49c-.96.96-2.12,1.44-3.48,1.44h-2.96v3.15h-1.97v-13.01h4.94ZM92.9,125.27h2.96c.81,0,1.5-.29,2.08-.87.58-.58.87-1.28.87-2.1s-.29-1.5-.87-2.08-1.27-.87-2.08-.87h-2.96v5.91Z"/>
    <path class="cls-1" d="M14.59,6.85l32.85,69.76L84.32,0h-4.06l-8.67,18.01-5.34-11.33-18.5,39.53L30.18,8.91s-.7-2.06-2.7-2.06h-12.89Z"/>
    <path class="cls-1" d="M117,6.85l-32.85,69.76-17.67-36.58,7.47-15.46,9.89,21.64,17.57-37.31s.65-2.06,2.7-2.06h12.89Z"/>
  </g>
</svg>