<?xml version="1.0" encoding="UTF-8"?>
<svg id="Layer_2" data-name="Layer 2" xmlns="http://www.w3.org/2000/svg" viewBox="0 0 208.28 64.71">
  <defs>
    <style>
      .cls-1 {
        fill: #fff;
      }
    </style>
  </defs>
  <g id="Layer_1-2" data-name="Layer 1">
    <path class="cls-1" d="M100.65,31.02v3.35h-3.35v-15.79h5.74c1.72,0,3.19.61,4.4,1.82,1.21,1.21,1.82,2.68,1.82,4.4s-.61,3.19-1.82,4.4c-1.21,1.21-2.68,1.82-4.4,1.82h-2.39ZM100.65,21.93v5.74h2.39c.79,0,1.47-.28,2.03-.84.56-.56.84-1.24.84-2.03s-.28-1.47-.84-2.03c-.56-.56-1.24-.84-2.03-.84h-2.39Z"/>
    <path class="cls-1" d="M116.92,31.02v3.35h-3.35v-15.79h5.74c1.72,0,3.19.61,4.4,1.82,1.21,1.21,1.82,2.68,1.82,4.4s-.61,3.19-1.82,4.4c-.24.24-.5.46-.78.67l2.6,4.5h-3.86l-1.93-3.37c-.14.01-.28.02-.42.02h-2.39ZM116.92,21.93v5.74h2.39c.79,0,1.47-.28,2.03-.84.56-.56.84-1.24.84-2.03s-.28-1.47-.84-2.03c-.56-.56-1.24-.84-2.03-.84h-2.39Z"/>
    <polygon class="cls-1" points="140.83 18.58 140.83 21.93 133.66 21.93 133.66 24.8 139.4 24.8 139.4 28.15 133.66 28.15 133.66 31.02 140.83 31.02 140.83 34.37 130.31 34.37 130.31 18.58 140.83 18.58"/>
    <polygon class="cls-1" points="147.74 18.58 153.04 25.68 158.34 18.58 160.92 18.58 160.92 34.37 157.57 34.37 157.57 25.2 153.8 30.25 152.27 30.25 148.49 25.16 148.49 34.37 145.14 34.37 145.14 18.58 147.74 18.58"/>
    <rect class="cls-1" x="166.18" y="18.58" width="3.35" height="15.79"/>
    <path class="cls-1" d="M174.31,28.15v-9.57h3.35v9.57c0,.92.32,1.71.98,2.36.65.66,1.44.99,2.37.99s1.71-.33,2.36-.99c.66-.66.98-1.44.98-2.36v-9.57h3.35v9.57c0,1.85-.65,3.43-1.96,4.74-1.31,1.31-2.89,1.96-4.74,1.96s-3.43-.65-4.73-1.96c-1.31-1.31-1.96-2.89-1.96-4.74"/>
    <polygon class="cls-1" points="195.09 18.58 200.39 25.68 205.69 18.58 208.28 18.58 208.28 34.37 204.93 34.37 204.93 25.2 201.16 30.25 199.63 30.25 195.84 25.16 195.84 34.37 192.49 34.37 192.49 18.58 195.09 18.58"/>
    <path class="cls-1" d="M107.2,50.26c-1.13,1.1-2.48,1.65-4.06,1.65s-2.99-.57-4.13-1.7c-1.14-1.14-1.71-2.51-1.71-4.13s.57-2.98,1.71-4.12c1.14-1.14,2.51-1.71,4.13-1.71s2.98.57,4.12,1.71l-1.19,1.17c-.81-.81-1.79-1.21-2.93-1.21s-2.14.41-2.95,1.22c-.81.81-1.22,1.79-1.22,2.94s.41,2.14,1.22,2.95c.81.81,1.8,1.22,2.95,1.22.9,0,1.7-.25,2.4-.76v-2.57h-3v-1.66h4.66v5.01Z"/>
    <path class="cls-1" d="M115.49,48.86c-.22.03-.45.05-.69.05h-2.5v2.66h-1.67v-10.99h4.17c1.15,0,2.12.41,2.94,1.22.81.81,1.22,1.79,1.22,2.94s-.4,2.14-1.21,2.94c-.22.22-.46.41-.71.57l1.66,3.32h-1.85l-1.36-2.72ZM112.29,47.25h2.5c.68,0,1.27-.24,1.76-.73.49-.49.73-1.08.73-1.77s-.24-1.27-.73-1.76c-.49-.49-1.07-.73-1.76-.73h-2.5v5Z"/>
    <path class="cls-1" d="M131.57,41.96c1.14,1.14,1.71,2.51,1.71,4.12s-.57,2.99-1.71,4.13c-1.14,1.14-2.51,1.71-4.12,1.71s-2.99-.57-4.13-1.71c-1.14-1.14-1.71-2.51-1.71-4.13s.57-2.98,1.71-4.12c1.14-1.14,2.51-1.7,4.13-1.7s2.98.57,4.12,1.7M127.45,41.92c-1.15,0-2.14.41-2.95,1.22-.81.81-1.22,1.79-1.22,2.94s.41,2.14,1.22,2.95c.81.81,1.8,1.22,2.95,1.22s2.12-.41,2.94-1.22c.81-.81,1.22-1.8,1.22-2.95s-.41-2.12-1.22-2.94c-.81-.81-1.79-1.22-2.94-1.22"/>
    <path class="cls-1" d="M135.94,47.41v-6.82h1.66v6.82c0,.79.27,1.46.83,2.01.55.55,1.22.82,2.01.82s1.45-.27,2-.82.83-1.22.83-2.01v-6.82h1.67v6.82c0,1.24-.44,2.31-1.32,3.18-.88.88-1.94,1.32-3.17,1.32s-2.3-.44-3.18-1.32c-.88-.88-1.32-1.94-1.32-3.18"/>
    <path class="cls-1" d="M152.43,40.59c1.14,0,2.12.41,2.94,1.22.81.81,1.22,1.79,1.22,2.94s-.41,2.14-1.22,2.95c-.81.81-1.79,1.22-2.94,1.22h-2.5v2.66h-1.67v-10.99h4.17ZM149.93,47.25h2.5c.68,0,1.27-.24,1.76-.73.49-.49.73-1.08.73-1.77s-.24-1.27-.73-1.76c-.49-.49-1.07-.73-1.76-.73h-2.5v5Z"/>
    <path class="cls-1" d="M0,5.78l27.75,58.92L58.9,0h-3.43l-7.32,15.21-4.51-9.57-15.63,33.39L13.17,7.53s-.59-1.74-2.28-1.74H0Z"/>
    <path class="cls-1" d="M86.5,5.78l-27.75,58.92-14.92-30.89,6.3-13.06,8.36,18.28,14.84-31.51s.55-1.74,2.28-1.74h10.89Z"/>
  </g>
</svg>